# xmcd
#
# Track frame offsets:
#	187
#	13625
#	23430
#	37422
#	50227
#	61512
#	73090
#	89702
#	104912
#	118792
#	130785
#	143450
#	155632
#	165517
#	176072
#	188385
#	201460
#	215755
#	232380
#	243712
#
# Disc length: 3367 seconds
#
# Revision: 1
# Processed by: cddbd v1.5.1PL0 Copyright (c) Steve Scherf et al.
# Submitted via: CDex 1.50Beta5
#
DISCID=320d2514
DTITLE=Various Artist - GSCD大全集6
DYEAR=1900
DGENRE=Rock
TTITLE0=オックス/ガール・フレンド
TTITLE1=オックス/ダンシング・セブンティーン
TTITLE2=オックス/オー・ビーバー
TTITLE3=オックス/スワンの涙
TTITLE4=オックス/オックス・クライ
TTITLE5=オックス/僕は燃えている
TTITLE6=オックス/ロザリオは永遠に
TTITLE7=オックス/神にそむいて
TTITLE8=オックス/僕をあげます
TTITLE9=荒木一郎/いとしのマックス
TTITLE10=荒木一郎/今夜は踊ろう
TTITLE11=ザ・ダイナマイツ/トンネル天国
TTITLE12=ザ・ダイナマイツ/恋はもうたくさん
TTITLE13=ザ・ダイナマイツ/ユメがほしい
TTITLE14=ザ・スイング・ウエスト/流れ者のギター
TTITLE15=ザ・フレッシュメン/バラは帰らない
TTITLE16=ザ・サニー・ファイブ/白鳥のバラード
TTITLE17=ファンキー・プリンス/おやすみ大阪
TTITLE18=ザ・モップス/ベラよ急げ
TTITLE19=ザ・モップス/お前のすべてを
EXTD=
EXTT0=
EXTT1=
EXTT2=
EXTT3=
EXTT4=
EXTT5=
EXTT6=
EXTT7=
EXTT8=
EXTT9=
EXTT10=
EXTT11=
EXTT12=
EXTT13=
EXTT14=
EXTT15=
EXTT16=
EXTT17=
EXTT18=
EXTT19=
PLAYORDER=
